<svg xmlns="http://www.w3.org/2000/svg" viewBox="0 0 1000 1000" id="real-estate-website"><path fill='#4A60A1' d="M900 269.21H100a16 16 0 010-32H900a16 16 0 110 32zM636.7 218.47h-6.61a16 16 0 010-32h6.61a16 16 0 010 32zM716.72 218.47H710.1a16 16 0 010-32h6.62a16 16 0 010 32zM796.73 218.47h-6.62a16 16 0 010-32h6.62a16 16 0 010 32zM823.34 370.56H617.55a16 16 0 010-32H823.34a16 16 0 010 32zM823.34 452.22H617.55a16 16 0 010-32H823.34a16 16 0 010 32zM823.34 533.88H617.55a16 16 0 010-32H823.34a16 16 0 010 32zM823.34 615.55H617.55a16 16 0 010-32H823.34a16 16 0 010 32zM556.28 486.33a15.88 15.88 0 01-10.41-3.86l-179.4-154-179.39 154a16 16 0 11-20.85-24.27l189.82-163a16 16 0 0120.85 0l189.81 163a16 16 0 01-10.43 28.13z"></path><path fill='#4A60A1' d="M525.85,662.76H207.1a16,16,0,0,1-16-16V444.2a16,16,0,1,1,32,0V630.76H525.85a16,16,0,1,1,0,32Z"></path><path d="M525.85 662.76a16 16 0 01-16-16V444.2a16 16 0 0132 0V646.76A16 16 0 01525.85 662.76zM418.37 662.75a16 16 0 01-16-16v-130H330.58v130a16 16 0 01-32 0v-146a16 16 0 0116-16H418.37a16 16 0 0116 16v146A16 16 0 01418.37 662.75z"></path><path fill='#4A60A1' d="M500 438a16 16 0 01-16-16V328.42H468v52.4a16 16 0 01-32 0v-68.4a16 16 0 0116-16h48a16 16 0 0116 16V422A16 16 0 01500 438zM366.47 473.8c-30.44 0-55.21-24.25-55.21-54.06s24.77-54.06 55.21-54.06 55.21 24.25 55.21 54.06S396.92 473.8 366.47 473.8zm0-76.12c-12.79 0-23.21 9.89-23.21 22.06s10.42 22.06 23.21 22.06 23.21-9.9 23.21-22.06S379.27 397.68 366.47 397.68z"></path><path d="M830.44 709.38H169.56A85.65 85.65 0 0184 623.82V221.29a85.65 85.65 0 0185.56-85.56H830.44A85.65 85.65 0 01916 221.29V623.82A85.65 85.65 0 01830.44 709.38zM169.56 167.73A53.62 53.62 0 00116 221.29V623.82a53.62 53.62 0 0053.56 53.56H830.44A53.62 53.62 0 00884 623.82V221.29a53.62 53.62 0 00-53.56-53.56zM656.48 864.27h-313a29 29 0 01-28.92-28.92V796a29 29 0 0128.92-28.92h313A29 29 0 01685.4 796v39.32A29 29 0 01656.48 864.27zm-309.88-32H653.4V799.11H346.6z"></path><path d="M637.44 799.11a16.11 16.11 0 01-5.78-1.08A143 143 0 01543.9 697a16 16 0 1131.17-7.24 111 111 0 0068.14 78.43 16 16 0 01-5.77 30.92zM362.56 799.11a16 16 0 01-5.78-30.92 111 111 0 0068.15-78.43A16 16 0 11456.1 697a142.93 142.93 0 01-87.77 101A16 16 0 01362.56 799.11z"></path></svg>